<svg width="103" height="132" viewBox="0 0 103 132" fill="none" xmlns="http://www.w3.org/2000/svg">
<path d="M31.9151 7.23758L91.512 0.752946C97.3781 0.114665 102.5 4.70952 102.5 10.6102V18.6806C102.5 20.7837 101.269 22.5763 99.4173 23.8653C97.5645 25.155 95.1469 25.8944 92.9296 25.8944C80.9143 25.8944 71.2817 36.9742 71.2817 50.5C71.2817 64.0258 80.9143 75.1056 92.9296 75.1056C95.1469 75.1056 97.5645 75.8451 99.4173 77.1347C101.269 78.4237 102.5 80.2163 102.5 82.3194V111.524C102.5 122.556 93.5564 131.5 82.524 131.5H61.9559C59.4015 131.5 57.2096 130.115 55.6383 128.024C54.0649 125.929 53.1479 123.165 53.1479 120.521C53.1479 106.995 43.5153 95.9155 31.5 95.9155C19.4847 95.9155 9.85212 106.995 9.85212 120.521C9.85212 121.943 9.95818 123.336 10.1619 124.693C10.409 126.338 9.96656 128.053 9.0461 129.353C8.12855 130.648 6.76097 131.5 5.15622 131.5C2.64037 131.5 0.639202 129.39 0.772508 126.878L5.64757 35.0014C6.4139 20.559 17.5373 8.802 31.9151 7.23758Z" fill="white" stroke="#D3D0FF"/>
</svg>
