<svg width="158" height="123" viewBox="0 0 158 123" fill="none" xmlns="http://www.w3.org/2000/svg">
<path d="M55.4104 36.0845C67.4116 36.0845 77.0318 25.0041 77.0318 11.4789C77.0318 8.83443 77.9491 6.07038 79.523 3.97613C81.0947 1.88477 83.2871 0.5 85.8421 0.5H106.364C117.386 0.5 126.321 9.43512 126.321 20.4571V49.6926C126.321 52.2214 127.806 54.2827 129.829 55.6896C131.85 57.0958 134.464 57.8944 136.879 57.8944C148.207 57.8944 157.5 68.3988 157.5 81.5C157.5 94.6012 148.207 105.106 136.879 105.106C134.464 105.106 131.85 105.904 129.829 107.31C127.806 108.717 126.321 110.779 126.321 113.307V115.555C126.321 119.668 122.629 122.797 118.572 122.124L25.3221 106.647C10.3888 104.169 -0.245035 90.7895 0.711107 75.6821L4.75041 11.8596C5.15461 5.47302 10.4523 0.5 16.8517 0.5H24.9787C27.5337 0.5 29.7261 1.88477 31.2978 3.97613C32.8717 6.07038 33.789 8.83443 33.789 11.4789C33.789 25.0041 43.4092 36.0845 55.4104 36.0845Z" fill="white" stroke="#D3D0FF"/>
</svg>
