<svg width="173" height="234" viewBox="0 0 173 234" fill="none" xmlns="http://www.w3.org/2000/svg">
<path d="M102 0.5C113.26 0.5 122.5 10.9942 122.5 24.0882C122.5 26.947 123.487 29.9205 125.193 32.1878C126.902 34.4581 129.365 36.0588 132.313 36.0588H152.634C163.605 36.0588 172.5 44.9534 172.5 55.9253V85.2636C172.5 87.3475 171.278 89.1237 169.439 90.4012C167.599 91.6793 165.199 92.4118 163 92.4118C151.064 92.4118 141.5 103.487 141.5 117C141.5 130.513 151.064 141.588 163 141.588C165.199 141.588 167.599 142.321 169.439 143.599C171.278 144.876 172.5 146.653 172.5 148.736V178.075C172.5 189.047 163.605 197.941 152.633 197.941H132.313C129.365 197.941 126.902 199.542 125.193 201.812C123.487 204.08 122.5 207.053 122.5 209.912C122.5 223.006 113.26 233.5 102 233.5C90.7404 233.5 81.5 223.006 81.5 209.912C81.5 207.053 80.513 204.08 78.8068 201.812C77.0984 199.542 74.6351 197.941 71.6872 197.941H51.3665C40.3945 197.941 31.5 189.047 31.5 178.075V148.736C31.5 146.223 30.0208 144.175 28.0094 142.777C25.9989 141.381 23.399 140.588 21 140.588C9.74039 140.588 0.5 130.094 0.5 117C0.5 103.906 9.74039 93.4118 21 93.4118C23.399 93.4118 25.9989 92.619 28.0094 91.2225C30.0208 89.8253 31.5 87.7775 31.5 85.2636V55.9253C31.5 44.9534 40.3945 36.0588 51.3665 36.0588H71.6873C74.6351 36.0588 77.0984 34.4581 78.8068 32.1878C80.513 29.9205 81.5 26.947 81.5 24.0882C81.5 10.9942 90.7404 0.5 102 0.5Z" fill="white" stroke="#D3D0FF"/>
</svg>
