<svg width="134" height="163" viewBox="0 0 134 163" fill="none" xmlns="http://www.w3.org/2000/svg">
<path d="M71.5 36.0845C83.5153 36.0845 93.1479 25.0047 93.1479 11.4789C93.1479 8.83488 94.0649 6.0708 95.6383 3.97642C97.2096 1.88493 99.4015 0.5 101.956 0.5H116.827C126.168 0.5 133.618 8.30001 133.188 17.6312L127.139 149.109C126.794 156.602 120.619 162.5 113.118 162.5H101.956C99.4015 162.5 97.2096 161.115 95.6383 159.024C94.0649 156.929 93.1479 154.165 93.1479 151.521C93.1479 137.995 83.5153 126.915 71.5 126.915C59.4847 126.915 49.8521 137.995 49.8521 151.521C49.8521 154.165 48.9351 156.929 47.3617 159.024C45.7904 161.115 43.5985 162.5 41.0441 162.5H20.476C9.44358 162.5 0.5 153.556 0.5 142.524V113.319C0.5 111.216 1.73073 109.424 3.58266 108.135C5.43555 106.845 7.85313 106.106 10.0704 106.106C22.0857 106.106 31.7183 95.0258 31.7183 81.5C31.7183 67.9742 22.0857 56.8944 10.0704 56.8944C7.85313 56.8944 5.43555 56.155 3.58266 54.8653C1.73073 53.5763 0.5 51.7837 0.5 49.6806V20.4761C0.5 9.44359 9.44358 0.5 20.476 0.5H41.0441C43.5985 0.5 45.7904 1.88493 47.3617 3.97642C48.9351 6.0708 49.8521 8.83488 49.8521 11.4789C49.8521 25.0047 59.4847 36.0845 71.5 36.0845Z" fill="white" stroke="#D3D0FF"/>
</svg>
