<svg width="142" height="141" viewBox="0 0 142 141" fill="none" xmlns="http://www.w3.org/2000/svg">
<path d="M71 36.0845C82.9367 36.0845 92.5 25.0012 92.5 11.4789C92.5 8.83238 93.4187 6.06843 94.9945 3.97477C96.5682 1.88402 98.7632 0.5 101.321 0.5H121.63C132.604 0.5 141.5 9.39625 141.5 20.3703V49.7475C141.5 51.8311 140.278 53.607 138.439 54.8842C136.599 56.1621 134.199 56.8944 132 56.8944C120.063 56.8944 110.5 67.9777 110.5 81.5C110.5 95.0223 120.063 106.106 132 106.106C134.199 106.106 136.599 106.838 138.439 108.116C140.278 109.393 141.5 111.169 141.5 113.252V127.256C141.5 135.257 134.408 141.399 126.489 140.256L6.43434 122.924C3.028 122.432 0.5 119.513 0.5 116.071V113.252C0.5 111.169 1.72203 109.393 3.56125 108.116C5.40135 106.838 7.80149 106.106 10 106.106C21.9367 106.106 31.5 95.0223 31.5 81.5C31.5 67.9777 21.9367 56.8944 10 56.8944C7.80149 56.8944 5.40135 56.1621 3.56125 54.8842C1.72203 53.607 0.5 51.8311 0.5 49.7475V20.3704C0.5 9.39627 9.39626 0.5 20.3703 0.5H40.6792C43.2368 0.5 45.4319 1.88402 47.0055 3.97477C48.5813 6.06843 49.5 8.83238 49.5 11.4789C49.5 25.0012 59.0633 36.0845 71 36.0845Z" fill="white" stroke="#D3D0FF"/>
</svg>
