<svg width="159" height="234" viewBox="0 0 159 234" fill="none" xmlns="http://www.w3.org/2000/svg">
<path d="M102.59 0.5C113.919 0.5 123.211 10.9971 123.211 24.0882C123.211 26.9447 124.196 29.918 125.9 32.1859C127.607 34.4566 130.067 36.0588 133.013 36.0588H144.183C152.224 36.0588 158.621 42.7992 158.202 50.8289L151.083 187.248C150.771 193.242 145.82 197.941 139.818 197.941H133.013C130.067 197.941 127.607 199.543 125.9 201.814C124.196 204.082 123.211 207.055 123.211 209.912C123.211 223.003 113.919 233.5 102.59 233.5C91.2604 233.5 81.9682 223.003 81.9682 209.912C81.9682 207.055 80.9828 204.082 79.2788 201.814C77.5726 199.543 75.1119 197.941 72.1659 197.941H51.6324C40.6126 197.941 31.6792 189.008 31.6792 177.988V148.791C31.6792 146.262 30.1938 144.201 28.1717 142.794C26.1506 141.387 23.5361 140.588 21.1214 140.588C9.79222 140.588 0.5 130.091 0.5 117C0.5 103.909 9.79222 93.4118 21.1214 93.4118C23.5361 93.4118 26.1506 92.613 28.1717 91.2065C30.1938 89.7993 31.6792 87.7377 31.6792 85.2087V56.0121C31.6792 44.9922 40.6126 36.0588 51.6324 36.0588H72.1659C75.1119 36.0588 77.5726 34.4566 79.2788 32.1859C80.9828 29.918 81.9682 26.9447 81.9682 24.0882C81.9682 10.9971 91.2604 0.5 102.59 0.5Z" fill="white" stroke="#D3D0FF"/>
</svg>
