<svg width="123" height="199" viewBox="0 0 123 199" fill="none" xmlns="http://www.w3.org/2000/svg">
<path d="M51.5 36.159C63.5162 36.159 73.1479 25.0555 73.1479 11.5029C73.1479 8.85239 74.0674 6.08235 75.645 3.98362C77.2204 1.88778 79.4181 0.5 81.9792 0.5H102.513C113.551 0.5 122.5 9.44862 122.5 20.4873V49.8046C122.5 51.9067 121.269 53.6983 119.417 54.9866C117.564 56.2756 115.146 57.0145 112.93 57.0145C100.913 57.0145 91.2817 68.1179 91.2817 81.6705C91.2817 95.2232 100.913 106.327 112.93 106.327C115.146 106.327 117.564 107.065 119.417 108.354C121.269 109.643 122.5 111.434 122.5 113.536V142.854C122.5 153.892 113.551 162.841 102.513 162.841H81.9792C79.025 162.841 76.557 164.447 74.8456 166.724C73.1364 168.998 72.1479 171.979 72.1479 174.844C72.1479 187.973 62.8431 198.5 51.5 198.5C40.1569 198.5 30.8521 187.973 30.8521 174.844C30.8521 171.979 29.8636 168.998 28.1544 166.724C26.443 164.447 23.975 162.841 21.0208 162.841H13.2949C6.39838 162.841 0.94813 156.994 1.43248 150.114L11.4416 7.94893C11.737 3.75298 15.2271 0.5 19.4334 0.5H21.0208C23.5819 0.5 25.7796 1.88778 27.355 3.98362C28.9326 6.08235 29.8521 8.85239 29.8521 11.5029C29.8521 25.0555 39.4838 36.159 51.5 36.159Z" fill="white" stroke="#D3D0FF"/>
</svg>
