<svg width="204" height="181" viewBox="0 0 204 181" fill="none" xmlns="http://www.w3.org/2000/svg">
<path d="M41.2609 11.9908L156.162 0.662528C164.913 -0.200313 172.5 6.67503 172.5 15.4691V32.5731C172.5 35.0877 173.979 37.1366 175.99 38.5347C178 39.9321 180.6 40.7254 183 40.7254C194.261 40.7254 203.5 51.1967 203.5 64.2601C203.5 77.3235 194.261 87.7948 183 87.7948C180.6 87.7948 178 88.5881 175.99 89.9856C173.979 91.3836 172.5 93.4325 172.5 95.9471V125.166C172.5 136.131 163.611 145.02 152.645 145.02H132.288C129.347 145.02 126.89 146.618 125.186 148.884C123.484 151.147 122.5 154.114 122.5 156.965C122.5 170.029 113.261 180.5 102 180.5C90.7394 180.5 81.5 170.029 81.5 156.965C81.5 154.114 80.5158 151.147 78.814 148.884C77.1101 146.618 74.6529 145.02 71.712 145.02H51.3546C40.3892 145.02 31.5 136.131 31.5 125.166V95.9471C31.5 93.4325 30.0215 91.3836 28.0102 89.9856C25.9999 88.5881 23.3999 87.7948 21 87.7948C9.73942 87.7948 0.5 77.3235 0.5 64.2601C0.5 51.1967 9.73942 40.7254 21 40.7254C23.3999 40.7254 25.9999 39.9321 28.0102 38.5347C30.0215 37.1366 31.5 35.0877 31.5 32.5732V22.7613C31.5 17.1953 35.7217 12.5369 41.2609 11.9908Z" fill="white" stroke="#D3D0FF"/>
</svg>
