<svg width="173" height="163" viewBox="0 0 173 163" fill="none" xmlns="http://www.w3.org/2000/svg">
<path d="M71 36.0845C82.9367 36.0845 92.5 25.0012 92.5 11.4789C92.5 8.83238 93.4187 6.06843 94.9945 3.97477C96.5682 1.88402 98.7632 0.5 101.321 0.5H121.63C132.604 0.5 141.5 9.39626 141.5 20.3703V49.7475C141.5 52.2612 142.979 54.3087 144.991 55.7056C147.001 57.1018 149.601 57.8944 152 57.8944C163.259 57.8944 172.5 68.396 172.5 81.5C172.5 94.604 163.259 105.106 152 105.106C149.601 105.106 147.001 105.898 144.991 107.294C142.979 108.691 141.5 110.739 141.5 113.252V142.63C141.5 153.604 132.604 162.5 121.63 162.5H101.321C98.7632 162.5 96.5681 161.116 94.9945 159.025C93.4187 156.932 92.5 154.168 92.5 151.521C92.5 137.999 82.9367 126.915 71 126.915C59.0633 126.915 49.5 137.999 49.5 151.521C49.5 154.168 48.5813 156.932 47.0055 159.025C45.4318 161.116 43.2368 162.5 40.6792 162.5H20.3703C9.39624 162.5 0.5 153.604 0.5 142.63V113.252C0.5 111.169 1.72203 109.393 3.56125 108.116C5.40135 106.838 7.80149 106.106 10 106.106C21.9367 106.106 31.5 95.0223 31.5 81.5C31.5 67.9777 21.9367 56.8944 10 56.8944C7.80149 56.8944 5.40135 56.1621 3.56125 54.8842C1.72203 53.607 0.5 51.8311 0.5 49.7475V20.3704C0.5 9.39627 9.39626 0.5 20.3703 0.5H40.6792C43.2368 0.5 45.4319 1.88402 47.0055 3.97477C48.5813 6.06843 49.5 8.83238 49.5 11.4789C49.5 25.0012 59.0633 36.0845 71 36.0845Z" fill="white" stroke="#D3D0FF"/>
</svg>
