<svg width="153" height="159" viewBox="0 0 153 159" fill="none" xmlns="http://www.w3.org/2000/svg">
<path d="M102.59 36.0845C114.591 36.0845 124.211 25.0041 124.211 11.4789C124.211 8.83443 125.128 6.07038 126.702 3.97613C128.274 1.88477 130.466 0.5 133.021 0.5H140.07C146.569 0.5 151.764 5.90602 151.505 12.4002L146.843 129.32C146.14 146.947 130.226 160.021 112.797 157.289L44.7418 146.62C37.2215 145.441 31.6792 138.962 31.6792 131.35V113.307C31.6792 110.779 30.1936 108.717 28.1715 107.31C26.1503 105.904 23.5358 105.106 21.1214 105.106C9.79254 105.106 0.5 94.6012 0.5 81.5C0.5 68.3988 9.79254 57.8944 21.1214 57.8944C23.5358 57.8944 26.1503 57.0958 28.1715 55.6896C30.1936 54.2827 31.6792 52.2214 31.6792 49.6926V20.4571C31.6792 9.43511 40.6143 0.5 51.6363 0.5H72.1579C74.7129 0.5 76.9053 1.88477 78.477 3.97613C80.0509 6.07038 80.9682 8.83443 80.9682 11.4789C80.9682 25.0041 90.5884 36.0845 102.59 36.0845Z" fill="white" stroke="#D3D0FF"/>
</svg>
