<svg width="141" height="195" viewBox="0 0 141 195" fill="none" xmlns="http://www.w3.org/2000/svg">
<path d="M14.6564 11.8632L107.695 1.45338C125.866 -0.5798 141.492 14.2381 140.424 32.4919L133.946 143.33C133.431 152.14 126.136 159.02 117.311 159.02H101.923C98.9845 159.02 96.5305 160.62 94.8293 162.886C93.1302 165.15 92.1479 168.116 92.1479 170.965C92.1479 184.025 82.8453 194.5 71.5 194.5C60.1547 194.5 50.8521 184.025 50.8521 170.965C50.8521 168.116 49.8698 165.15 48.1707 162.886C46.4695 160.62 44.0155 159.02 41.0768 159.02H20.4601C9.43645 159.02 0.5 150.084 0.5 139.06V110.014C0.5 107.91 1.73039 106.116 3.58196 104.826C5.43453 103.535 7.85204 102.795 10.0704 102.795C22.0844 102.795 31.7183 91.7482 31.7183 78.2601C31.7183 64.772 22.0844 53.7254 10.0704 53.7254C7.85204 53.7254 5.43453 52.9853 3.58196 51.6946C1.73039 50.4047 0.5 48.6107 0.5 46.5062V27.6919C0.5 19.5807 6.59556 12.7652 14.6564 11.8632Z" fill="white" stroke="#D3D0FF"/>
</svg>
