<svg width="143" height="234" viewBox="0 0 143 234" fill="none" xmlns="http://www.w3.org/2000/svg">
<path d="M40.4104 0.5C51.7396 0.5 61.0318 10.9971 61.0318 24.0882C61.0318 26.9447 62.0172 29.918 63.7212 32.1859C65.4274 34.4566 67.8881 36.0588 70.8341 36.0588H91.3676C102.387 36.0588 111.321 44.9922 111.321 56.0121V85.2087C111.321 87.7377 112.806 89.7993 114.828 91.2065C116.849 92.613 119.464 93.4118 121.879 93.4118C133.208 93.4118 142.5 103.909 142.5 117C142.5 130.091 133.208 140.588 121.879 140.588C119.464 140.588 116.849 141.387 114.828 142.794C112.806 144.201 111.321 146.262 111.321 148.791V177.988C111.321 189.008 102.387 197.941 91.3676 197.941H70.8341C67.8881 197.941 65.4274 199.543 63.7212 201.814C62.0172 204.082 61.0318 207.055 61.0318 209.912C61.0318 223.003 51.7396 233.5 40.4104 233.5C29.0812 233.5 19.789 223.003 19.789 209.912C19.789 207.055 18.8036 204.082 17.0996 201.814C15.3934 199.543 12.9327 197.941 9.9867 197.941H8.47302C3.89708 197.941 0.268507 194.083 0.548915 189.516L9.71741 40.177C9.85949 37.8629 11.7777 36.0588 14.0962 36.0588C16.0838 36.0588 17.7322 34.9976 18.7992 33.4916C19.8632 31.9898 20.3738 30.0163 20.0874 28.1086C19.8913 26.8023 19.789 25.4591 19.789 24.0882C19.789 10.9971 29.0812 0.5 40.4104 0.5Z" fill="white" stroke="#D3D0FF"/>
</svg>
